<?xml version="1.0" encoding="UTF-8"?>
<svg width="14px" height="18px" viewBox="0 0 14 18" version="1.1" xmlns="http://www.w3.org/2000/svg" xmlns:xlink="http://www.w3.org/1999/xlink">
    <!-- Generator: Sketch 60 (88103) - https://sketch.com -->
    <title>delete-button</title>
    <desc>Created with Sketch.</desc>
    <g id="Page-1" stroke="none" stroke-width="1" fill="none" fill-rule="evenodd">
        <g id="Artboard" transform="translate(-259.000000, -185.000000)" fill="#E1E1E1" fill-rule="nonzero">
            <g id="Group-Copy" transform="translate(36.000000, 170.000000)">
                <g id="delete-button" transform="translate(223.000000, 15.000000)">
                    <path d="M12.0007212,2.06952941 L9.3119335,2.06952941 C9.17780563,0.906455243 8.18824552,0 6.98975959,0 C5.79130946,0 4.80189258,0.906419437 4.66776471,2.06952941 L1.97883376,2.06952941 C0.890700767,2.06952941 0.00554987212,2.95493095 0.00554987212,4.04302813 L0.00554987212,4.14428645 C0.00554987212,4.97580051 0.523299233,5.68750895 1.25265985,5.97749872 L1.25265985,15.3001739 C1.25265985,16.3883069 2.13791816,17.2736726 3.22597954,17.2736726 L10.7536113,17.2736726 C11.8417084,17.2736726 12.7268951,16.3882353 12.7268951,15.3001739 L12.7268951,5.97753453 C13.4562199,5.68750895 13.9740051,4.97580051 13.9740051,4.14432225 L13.9740051,4.04306394 C13.9740051,2.95493095 13.0887826,2.06952941 12.0007212,2.06952941 Z M6.98975959,0.935923274 C7.6713913,0.935923274 8.24034271,1.42449105 8.36623529,2.06952941 L5.61353453,2.06952941 C5.7393913,1.42445524 6.30837852,0.935923274 6.98975959,0.935923274 Z M11.7909719,15.3001739 C11.7909719,15.8722762 11.3254987,16.3377852 10.7535754,16.3377852 L3.22594373,16.3377852 C2.65402046,16.3377852 2.18854731,15.8722404 2.18854731,15.3001739 L2.18854731,6.11778517 L11.7909719,6.11778517 L11.7909719,15.3001739 Z M13.0381176,4.14428645 C13.0381176,4.71638875 12.5726087,5.1818977 12.0006854,5.1818977 L1.97883376,5.1818977 C1.40691049,5.1818977 0.94143734,4.71638875 0.94143734,4.14428645 L0.94143734,4.04302813 C0.94143734,3.47092583 1.40691049,3.00541688 1.97883376,3.00541688 L12.0007212,3.00541688 C12.5726445,3.00541688 13.0381176,3.47092583 13.0381176,4.04302813 L13.0381176,4.14428645 L13.0381176,4.14428645 Z" id="Shape"></path>
                    <path d="M4.48085934,15.1408747 C4.73930435,15.1408747 4.94880307,14.9313043 4.94880307,14.6729668 L4.94880307,9.40402558 C4.94880307,9.14565217 4.73926854,8.93604604 4.48085934,8.93604604 C4.22245013,8.93604604 4.0129156,9.14565217 4.0129156,9.40402558 L4.0129156,14.6729668 C4.0128798,14.931376 4.22241432,15.1408747 4.48085934,15.1408747 Z" id="Path"></path>
                    <path d="M6.98975959,15.1408747 C7.2482046,15.1408747 7.45773913,14.9313043 7.45773913,14.6729668 L7.45773913,9.40402558 C7.45773913,9.14565217 7.24813299,8.93604604 6.98975959,8.93604604 C6.73135038,8.93604604 6.52181586,9.14565217 6.52181586,9.40402558 L6.52181586,14.6729668 C6.52181586,14.931376 6.73131458,15.1408747 6.98975959,15.1408747 Z" id="Path"></path>
                    <path d="M9.49865985,15.1408747 C9.75706905,15.1408747 9.96656777,14.9313043 9.96656777,14.6729668 L9.96656777,9.40402558 C9.96656777,9.14565217 9.75703325,8.93604604 9.49865985,8.93604604 C9.24017903,8.93604604 9.03068031,9.14565217 9.03068031,9.40402558 L9.03068031,14.6729668 C9.0306445,14.931376 9.24025064,15.1408747 9.49865985,15.1408747 Z" id="Path"></path>
                </g>
            </g>
        </g>
    </g>
</svg>